<svg width="650" height="500" viewBox="0 0 374 368" fill="none" xmlns="http://www.w3.org/2000/svg">
<path d="M26.3936 157.499C26.3936 157.499 21.1727 216.31 66.0992 264.308C111.026 312.306 179.536 327.557 234.825 341.361C290.114 355.165 336.71 331.907 348.891 286.203C361.073 240.499 320.147 219.036 303.572 161.503C286.998 103.97 291.181 86.815 246.291 45.1369C201.402 3.45889 122.47 9.75388 75.4765 58.6983C28.4833 107.643 26.3936 157.499 26.3936 157.499Z" fill="white"/>
<path opacity="0.7" d="M26.3936 157.499C26.3936 157.499 21.1727 216.31 66.0992 264.308C111.026 312.306 179.536 327.557 234.825 341.361C290.114 355.165 336.71 331.907 348.891 286.203C361.073 240.499 320.147 219.036 303.572 161.503C286.998 103.97 291.181 86.815 246.291 45.1369C201.402 3.45889 122.47 9.75388 75.4765 58.6983C28.4833 107.643 26.3936 157.499 26.3936 157.499Z" fill="white"/>
<path d="M246.377 59.6652L126.818 59.8268C120.827 59.8349 115.978 64.6121 115.986 70.497L116.323 319.977C116.331 325.862 121.193 330.626 127.184 330.618L246.742 330.456C252.733 330.448 257.583 325.671 257.575 319.786L257.238 70.3061C257.23 64.4212 252.367 59.6571 246.377 59.6652Z" fill="#263238"/>
<mask id="mask0_192_242" style="mask-type:luminance" maskUnits="userSpaceOnUse" x="115" y="59" width="143" height="272">
<path d="M246.377 59.6652L126.818 59.8268C120.827 59.8349 115.978 64.6121 115.986 70.497L116.323 319.977C116.331 325.862 121.193 330.626 127.184 330.618L246.742 330.456C252.733 330.448 257.583 325.671 257.575 319.786L257.238 70.3061C257.23 64.4212 252.367 59.6571 246.377 59.6652Z" fill="white"/>
</mask>
<g mask="url(#mask0_192_242)">
<path opacity="0.2" d="M128.14 59.825C126.541 59.8271 124.959 60.1387 123.483 60.742C122.007 61.3452 120.666 62.2282 119.538 63.3406C118.409 64.453 117.515 65.7729 116.905 67.2249C116.296 68.677 115.984 70.2327 115.987 71.8032L116.321 318.671C116.321 320.421 116.713 322.149 117.469 323.733C118.225 325.318 119.327 326.719 120.696 327.838L202.744 59.7242L128.14 59.825Z" fill="white"/>
<path d="M191.745 322.701C191.743 321.767 191.46 320.855 190.931 320.079C190.402 319.304 189.65 318.7 188.772 318.344C187.893 317.989 186.927 317.897 185.995 318.081C185.064 318.265 184.208 318.716 183.538 319.378C182.867 320.039 182.411 320.881 182.228 321.797C182.045 322.713 182.142 323.662 182.508 324.524C182.874 325.385 183.492 326.121 184.283 326.638C185.075 327.154 186.005 327.428 186.955 327.426C187.586 327.426 188.21 327.304 188.793 327.066C189.375 326.828 189.904 326.48 190.349 326.041C190.794 325.602 191.147 325.081 191.386 324.507C191.626 323.934 191.747 323.32 191.745 322.701Z" stroke="white" stroke-linecap="round" stroke-linejoin="round"/>
</g>
<path d="M246.377 59.6652L126.818 59.8268C120.827 59.8349 115.978 64.6121 115.986 70.497L116.323 319.977C116.331 325.862 121.193 330.626 127.184 330.618L246.742 330.456C252.733 330.448 257.583 325.671 257.575 319.786L257.238 70.3061C257.23 64.4212 252.367 59.6571 246.377 59.6652Z" stroke="#263238" stroke-linecap="round" stroke-linejoin="round"/>
<path d="M250.958 78.0494L122.271 78.2233L122.59 314.553L251.277 314.379L250.958 78.0494Z" fill="white" stroke="#263238" stroke-linecap="round" stroke-linejoin="round"/>
<path d="M246.584 80.5063L235.917 80.5208L235.924 86.2668L246.592 86.2524L246.584 80.5063Z" stroke="#263238" stroke-width="0.821067" stroke-linecap="round" stroke-linejoin="round"/>
<path d="M244.238 80.5095L235.917 80.5208L235.924 86.2668L244.246 86.2556L244.238 80.5095Z" fill="#263238" stroke="#263238" stroke-width="0.725073" stroke-linecap="round" stroke-linejoin="round"/>
<path d="M248.065 82.1115L246.564 82.1135L246.567 84.6453L248.069 84.6433L248.065 82.1115Z" fill="#263238" stroke="#263238" stroke-width="0.725073" stroke-linecap="round" stroke-linejoin="round"/>
<path d="M127.132 82.4511L125.175 82.4537L125.18 85.7487L127.137 85.7461L127.132 82.4511Z" fill="#263238" stroke="#263238" stroke-width="0.883086" stroke-linecap="round" stroke-linejoin="round"/>
<path d="M130.208 81.2874L128.251 81.29L128.257 85.7445L130.214 85.7419L130.208 81.2874Z" fill="#263238" stroke="#263238" stroke-width="0.883086" stroke-linecap="round" stroke-linejoin="round"/>
<path d="M133.277 79.9183L131.32 79.9209L131.327 85.7403L133.285 85.7377L133.277 79.9183Z" fill="#263238" stroke="#263238" stroke-width="0.883086" stroke-linecap="round" stroke-linejoin="round"/>
<path d="M247.933 89.4502L124.363 89.6172L124.375 98.7463L247.946 98.5793L247.933 89.4502Z" fill="white"/>
<path d="M240.713 219.389L202.735 219.44C201.491 219.442 200.299 219.929 199.42 220.794C198.541 221.66 198.049 222.833 198.05 224.055L198.057 228.634L188.68 232.793L198.066 235.253L198.069 238.115C198.071 239.338 198.567 240.509 199.448 241.372C200.329 242.235 201.523 242.719 202.767 242.718L240.782 242.666C242.026 242.665 243.219 242.177 244.098 241.312C244.976 240.447 245.469 239.274 245.467 238.051L245.448 223.998C245.448 223.389 245.326 222.786 245.087 222.224C244.849 221.662 244.499 221.152 244.059 220.723C243.619 220.295 243.097 219.956 242.522 219.727C241.948 219.498 241.333 219.383 240.713 219.389Z" fill="white" stroke="#263238" stroke-miterlimit="10"/>
<path d="M215.092 231.436C215.093 231.821 214.977 232.198 214.76 232.518C214.542 232.838 214.233 233.088 213.871 233.235C213.509 233.383 213.111 233.421 212.726 233.346C212.342 233.271 211.989 233.086 211.712 232.813C211.435 232.541 211.247 232.194 211.171 231.816C211.095 231.439 211.134 231.048 211.285 230.692C211.435 230.337 211.69 230.033 212.016 229.82C212.342 229.607 212.726 229.493 213.118 229.494C213.377 229.494 213.634 229.544 213.874 229.641C214.114 229.739 214.332 229.882 214.515 230.062C214.699 230.243 214.844 230.457 214.943 230.693C215.042 230.929 215.093 231.181 215.092 231.436Z" fill="#263238"/>
<path d="M223.728 231.425C223.727 231.807 223.61 232.181 223.393 232.499C223.176 232.817 222.868 233.065 222.508 233.211C222.147 233.357 221.751 233.395 221.369 233.32C220.987 233.245 220.636 233.06 220.36 232.789C220.085 232.518 219.897 232.173 219.821 231.798C219.745 231.422 219.784 231.033 219.933 230.679C220.082 230.326 220.335 230.023 220.659 229.81C220.982 229.597 221.363 229.483 221.753 229.483C222.013 229.482 222.27 229.532 222.51 229.63C222.749 229.727 222.967 229.87 223.151 230.051C223.334 230.231 223.48 230.445 223.579 230.681C223.678 230.917 223.728 231.17 223.728 231.425Z" fill="#263238"/>
<path d="M232.371 231.413C232.371 231.798 232.256 232.174 232.038 232.494C231.821 232.814 231.513 233.064 231.151 233.211C230.789 233.359 230.392 233.398 230.007 233.324C229.623 233.249 229.27 233.064 228.993 232.793C228.716 232.521 228.527 232.175 228.45 231.798C228.373 231.421 228.412 231.029 228.561 230.674C228.711 230.318 228.964 230.014 229.289 229.8C229.614 229.586 229.997 229.471 230.388 229.471C230.913 229.47 231.417 229.674 231.789 230.039C232.161 230.403 232.37 230.897 232.371 231.413Z" fill="#263238"/>
<path d="M240.565 109.311L202.587 109.362C201.344 109.364 200.152 109.85 199.274 110.714C198.396 111.578 197.902 112.749 197.902 113.97L197.908 118.556L188.531 122.715L197.917 125.176L197.921 128.038C197.922 129.26 198.418 130.431 199.299 131.295C200.18 132.158 201.374 132.642 202.618 132.64L240.633 132.589C241.878 132.587 243.07 132.1 243.949 131.234C244.827 130.369 245.32 129.196 245.318 127.974L245.299 113.92C245.3 113.311 245.177 112.708 244.939 112.146C244.7 111.584 244.351 111.074 243.91 110.646C243.47 110.217 242.948 109.878 242.374 109.649C241.799 109.42 241.184 109.305 240.565 109.311Z" fill="white" stroke="#263238" stroke-miterlimit="10"/>
<path d="M214.944 121.359C214.944 121.744 214.828 122.12 214.611 122.44C214.393 122.76 214.084 123.01 213.722 123.158C213.36 123.305 212.962 123.344 212.578 123.269C212.193 123.193 211.84 123.008 211.563 122.736C211.286 122.463 211.098 122.116 211.022 121.739C210.946 121.361 210.986 120.97 211.136 120.614C211.287 120.259 211.541 119.955 211.867 119.742C212.194 119.529 212.577 119.416 212.969 119.417C213.228 119.416 213.486 119.466 213.725 119.564C213.965 119.661 214.183 119.804 214.367 119.985C214.55 120.165 214.696 120.379 214.795 120.615C214.894 120.851 214.944 121.104 214.944 121.359Z" fill="#263238"/>
<path d="M223.579 121.347C223.578 121.73 223.462 122.104 223.244 122.422C223.027 122.74 222.719 122.987 222.359 123.133C221.999 123.279 221.602 123.317 221.22 123.242C220.838 123.167 220.487 122.982 220.212 122.712C219.936 122.441 219.749 122.096 219.673 121.72C219.597 121.345 219.636 120.955 219.785 120.602C219.934 120.248 220.186 119.945 220.51 119.732C220.834 119.519 221.215 119.405 221.604 119.405C221.864 119.405 222.121 119.455 222.361 119.552C222.601 119.65 222.819 119.793 223.002 119.973C223.186 120.154 223.331 120.368 223.43 120.604C223.529 120.839 223.58 121.092 223.579 121.347Z" fill="#263238"/>
<path d="M232.222 121.335C232.222 121.72 232.107 122.096 231.89 122.416C231.673 122.736 231.364 122.986 231.002 123.134C230.641 123.281 230.243 123.32 229.859 123.246C229.475 123.171 229.122 122.987 228.844 122.715C228.567 122.443 228.378 122.097 228.301 121.72C228.224 121.343 228.263 120.952 228.412 120.596C228.562 120.241 228.815 119.937 229.14 119.722C229.466 119.508 229.848 119.394 230.24 119.393C230.765 119.392 231.268 119.597 231.64 119.961C232.012 120.325 232.221 120.819 232.222 121.335Z" fill="#263238"/>
<path d="M133.636 279.188L171.651 279.137C172.895 279.135 174.089 279.619 174.97 280.482C175.851 281.345 176.347 282.517 176.348 283.739L176.355 288.318L185.743 292.452L176.363 294.938L176.367 297.8C176.369 299.022 175.876 300.195 174.998 301.06C174.119 301.926 172.927 302.413 171.682 302.415L133.667 302.466C132.423 302.468 131.229 301.984 130.348 301.121C129.467 300.257 128.971 299.086 128.97 297.864L128.951 283.832C128.946 283.225 129.064 282.622 129.297 282.059C129.53 281.496 129.874 280.984 130.31 280.553C130.745 280.121 131.263 279.778 131.834 279.544C132.405 279.31 133.017 279.189 133.636 279.188Z" fill="white" stroke="#263238" stroke-miterlimit="10"/>
<path d="M159.289 291.196C159.288 291.581 159.404 291.958 159.621 292.279C159.839 292.599 160.148 292.849 160.51 292.997C160.872 293.144 161.271 293.183 161.656 293.108C162.04 293.032 162.393 292.847 162.67 292.574C162.947 292.301 163.136 291.954 163.211 291.576C163.287 291.198 163.246 290.806 163.095 290.451C162.944 290.095 162.689 289.792 162.362 289.579C162.035 289.366 161.651 289.254 161.259 289.256C160.736 289.257 160.234 289.461 159.865 289.825C159.496 290.189 159.289 290.682 159.289 291.196Z" fill="#263238"/>
<path d="M150.654 291.208C150.654 291.591 150.771 291.965 150.988 292.284C151.205 292.602 151.513 292.85 151.874 292.996C152.234 293.142 152.631 293.18 153.013 293.105C153.396 293.029 153.747 292.844 154.022 292.573C154.298 292.302 154.485 291.956 154.561 291.58C154.636 291.204 154.597 290.815 154.447 290.461C154.297 290.107 154.044 289.805 153.719 289.593C153.395 289.38 153.013 289.267 152.623 289.268C152.1 289.268 151.599 289.473 151.23 289.837C150.86 290.201 150.653 290.694 150.654 291.208Z" fill="#263238"/>
<path d="M142.011 291.219C142.01 291.604 142.125 291.981 142.342 292.301C142.559 292.622 142.868 292.872 143.23 293.02C143.592 293.167 143.99 293.206 144.375 293.132C144.759 293.057 145.112 292.872 145.389 292.6C145.667 292.328 145.856 291.981 145.932 291.603C146.008 291.226 145.969 290.835 145.819 290.479C145.669 290.123 145.415 289.82 145.089 289.606C144.763 289.393 144.38 289.279 143.988 289.279C143.464 289.28 142.962 289.485 142.592 289.848C142.221 290.212 142.012 290.705 142.011 291.219Z" fill="#263238"/>
<path d="M133.485 167.643L171.5 167.591C172.744 167.59 173.938 168.074 174.819 168.937C175.7 169.8 176.196 170.971 176.198 172.194L176.204 176.773L185.592 180.906L176.213 183.392L176.217 186.254C176.218 187.476 175.726 188.649 174.847 189.515C173.968 190.38 172.776 190.867 171.532 190.869L133.516 190.92C132.272 190.922 131.078 190.438 130.197 189.575C129.316 188.712 128.821 187.541 128.819 186.318L128.8 172.25C128.8 171.029 129.294 169.858 130.172 168.994C131.051 168.131 132.242 167.644 133.485 167.643Z" fill="white" stroke="#263238" stroke-miterlimit="10"/>
<path d="M159.138 179.614C159.139 179.999 159.256 180.375 159.474 180.695C159.692 181.014 160.002 181.263 160.365 181.41C160.727 181.556 161.125 181.594 161.51 181.517C161.894 181.441 162.246 181.255 162.522 180.982C162.798 180.709 162.986 180.361 163.061 179.983C163.136 179.606 163.095 179.214 162.944 178.859C162.792 178.504 162.537 178.202 162.21 177.989C161.883 177.777 161.5 177.665 161.108 177.667C160.848 177.667 160.591 177.718 160.352 177.816C160.112 177.914 159.895 178.058 159.712 178.238C159.529 178.419 159.384 178.634 159.285 178.87C159.187 179.106 159.137 179.359 159.138 179.614Z" fill="#263238"/>
<path d="M150.503 179.625C150.505 180.008 150.622 180.382 150.84 180.699C151.059 181.017 151.367 181.263 151.728 181.408C152.089 181.554 152.485 181.59 152.867 181.514C153.249 181.438 153.599 181.253 153.874 180.981C154.149 180.709 154.335 180.364 154.41 179.988C154.485 179.612 154.445 179.223 154.295 178.87C154.145 178.517 153.892 178.215 153.568 178.003C153.243 177.791 152.862 177.678 152.473 177.678C152.213 177.678 151.956 177.729 151.716 177.827C151.477 177.925 151.259 178.069 151.076 178.25C150.893 178.431 150.748 178.646 150.65 178.882C150.552 179.118 150.502 179.37 150.503 179.625Z" fill="#263238"/>
<path d="M141.86 179.637C141.861 180.022 141.977 180.398 142.195 180.717C142.413 181.037 142.723 181.286 143.085 181.432C143.447 181.579 143.845 181.617 144.229 181.541C144.612 181.466 144.965 181.28 145.241 181.008C145.518 180.735 145.706 180.389 145.782 180.011C145.858 179.634 145.818 179.243 145.668 178.888C145.517 178.533 145.263 178.229 144.937 178.016C144.612 177.803 144.229 177.689 143.837 177.69C143.312 177.691 142.809 177.896 142.438 178.261C142.067 178.627 141.859 179.121 141.86 179.637Z" fill="#263238"/>
<path d="M188.812 164.552C187.925 160.73 184.499 146.366 182.367 143.55C179.904 140.295 165.671 132.749 163.638 131.386C161.604 130.024 158.502 128.979 157.539 128.98C157.539 128.98 149.736 131.618 142.045 133.624C134.353 135.631 130.097 137.002 129.219 139.513C128.475 141.715 125.086 160.228 124.293 164.624L188.812 164.552Z" fill="#616161" stroke="#263238" stroke-linecap="round" stroke-linejoin="round"/>
<path d="M142.152 163.301C141.821 157.818 141.497 152.338 141.181 146.864" stroke="#263238" stroke-linecap="round" stroke-linejoin="round"/>
<path d="M163.336 145.778C166.973 145.252 168.996 138.732 169.53 136.002C169.604 135.605 169.679 135.268 169.745 134.937C166.845 133.261 164.393 131.899 163.638 131.386C161.604 130.024 158.502 128.979 157.539 128.98C157.539 128.98 154.694 129.946 150.744 131.147C151.276 132.335 152.632 135.269 154.669 139.177C157.35 144.318 159.706 146.326 163.336 145.778Z" fill="white" stroke="#263238" stroke-linecap="round" stroke-linejoin="round"/>
<path d="M155.173 119.421C155.173 119.421 154.119 130.247 154.015 130.878C153.912 131.51 155.411 135.705 157.986 139.591C160.561 143.477 163.967 143.157 165.681 139.786C166.961 136.971 167.994 134.053 168.769 131.064C167.107 130.716 165.543 130.009 164.192 128.996C162.841 127.982 161.735 126.687 160.955 125.204C158.386 120.158 156.239 117.952 155.173 119.421Z" fill="#B2B2B2" stroke="#263238" stroke-linecap="round" stroke-linejoin="round"/>
<path d="M162.518 93.6752C162.518 93.6752 155.678 95.6805 153.228 100.938C151.232 105.212 152.384 111.866 153.246 114.067C154.108 116.267 154.427 120.582 156.039 124.469C157.65 128.356 161.929 133.267 165.568 133.996C169.207 134.725 176.363 129.043 178.257 126.42C180.151 123.798 179.532 119.271 179.741 118.537C179.949 117.803 182.721 112.545 182.398 106.058C182.076 99.5709 172.892 91.8779 162.518 93.6752Z" fill="#B2B2B2" stroke="#263238" stroke-linecap="round" stroke-linejoin="round"/>
<path d="M175.706 117.823C175.706 117.823 176.678 123.913 175.177 124.546C173.676 125.179 170.792 124.236 170.365 123.393" stroke="#263238" stroke-linecap="round" stroke-linejoin="round"/>
<path d="M169.518 126.652C167.86 125.895 166.423 124.741 165.337 123.297C165.337 123.297 162.989 126.764 165.56 127.7C166.244 127.984 167.005 128.035 167.722 127.845C168.439 127.655 169.071 127.235 169.518 126.652Z" fill="#263238" stroke="#263238" stroke-linecap="round" stroke-linejoin="round"/>
<path d="M170.753 117.639C170.493 118.469 169.941 119.042 169.515 118.918C169.089 118.794 168.961 118.016 169.213 117.179C169.466 116.342 170.026 115.776 170.444 115.9C170.863 116.024 171.006 116.802 170.753 117.639Z" fill="#263238"/>
<path d="M178.239 118.781C177.979 119.618 177.427 120.191 177.001 120.06C176.575 119.928 176.447 119.158 176.7 118.328C176.953 117.499 177.512 116.918 177.938 117.042C178.364 117.166 178.492 117.951 178.239 118.781Z" fill="#263238"/>
<path d="M172.922 113.894C172.744 113.896 172.573 113.83 172.443 113.711C170.446 111.835 168.215 113.57 168.118 113.643C168.048 113.699 167.967 113.741 167.881 113.766C167.794 113.792 167.703 113.8 167.614 113.791C167.524 113.782 167.437 113.756 167.357 113.714C167.278 113.671 167.207 113.614 167.151 113.545C167.094 113.477 167.051 113.397 167.025 113.312C166.999 113.227 166.991 113.138 167 113.05C167.009 112.962 167.036 112.876 167.079 112.798C167.122 112.72 167.18 112.651 167.25 112.595C168.112 111.869 169.215 111.482 170.35 111.506C171.484 111.53 172.57 111.965 173.398 112.726C173.527 112.854 173.6 113.026 173.6 113.206C173.601 113.387 173.528 113.559 173.399 113.687C173.338 113.751 173.263 113.802 173.181 113.837C173.099 113.873 173.011 113.892 172.922 113.894Z" fill="#263238"/>
<path d="M180.836 116.209C180.72 116.209 180.607 116.181 180.505 116.127C180.403 116.073 180.316 115.996 180.253 115.902C180.116 115.635 179.921 115.401 179.682 115.216C179.443 115.031 179.165 114.9 178.869 114.832C178.351 114.811 177.843 114.979 177.443 115.304C177.376 115.363 177.297 115.409 177.212 115.438C177.127 115.468 177.037 115.481 176.947 115.476C176.857 115.472 176.768 115.45 176.687 115.411C176.605 115.373 176.532 115.32 176.472 115.254C176.411 115.188 176.365 115.111 176.335 115.027C176.304 114.943 176.291 114.855 176.296 114.766C176.301 114.678 176.323 114.591 176.362 114.511C176.401 114.431 176.456 114.359 176.523 114.3C176.868 114.004 177.27 113.78 177.704 113.641C178.139 113.502 178.598 113.45 179.054 113.489C179.551 113.576 180.022 113.772 180.431 114.062C180.84 114.353 181.177 114.73 181.417 115.166C181.484 115.268 181.523 115.387 181.527 115.509C181.532 115.63 181.503 115.751 181.443 115.858C181.384 115.965 181.296 116.054 181.189 116.116C181.082 116.178 180.96 116.21 180.836 116.209Z" fill="#263238"/>
<path d="M153.426 114.602C153.471 114.734 153.508 114.866 153.546 115.006L153.546 115.094C153.591 115.241 153.628 115.395 153.666 115.549L153.666 115.593C153.666 115.769 153.749 115.945 153.786 116.128L157.162 115.39C157.162 115.39 160.263 116.017 160.695 114.967C161.126 113.917 159.085 112.342 160.577 110.769C162.069 109.197 166.246 110.233 166.669 108.237C167.092 106.24 168.151 99.0982 176.819 101.288C178.586 101.851 180.282 102.612 181.872 103.556C179.757 97.7469 171.562 92.0633 162.481 93.6386C162.481 93.6386 155.641 95.6439 153.19 100.902C151.194 105.175 152.346 111.83 153.208 114.03C153.261 114.17 153.313 114.324 153.366 114.478L153.426 114.602Z" fill="#263238" stroke="#263238" stroke-linecap="round" stroke-linejoin="round"/>
<path d="M158.703 117.215C158.703 117.215 157.734 113.121 155.164 112.699C152.593 112.277 151.641 115.331 152.183 118.06C152.724 120.79 155.499 123.31 157.963 122.573" fill="#B2B2B2"/>
<path d="M158.703 117.215C158.703 117.215 157.734 113.121 155.164 112.699C152.593 112.277 151.641 115.331 152.183 118.06C152.724 120.79 155.499 123.31 157.963 122.573" stroke="#263238" stroke-linecap="round" stroke-linejoin="round"/>
<path d="M167.238 164.581C169.185 162.494 173.713 157.652 174.049 157.321C174.384 156.991 175.116 156.902 177.573 156.267C180.03 155.633 184.092 154.262 184.733 153.733C185.696 153.128 186.561 152.385 187.3 151.528C187.821 150.683 188.284 149.805 188.686 148.899C189.007 148.37 191.567 147.215 192.209 146.693C192.851 146.171 193.492 145.12 193.274 144.592C193.057 144.064 189.323 145.126 185.903 145.865C184.072 146.282 182.213 146.565 180.339 146.709C180.339 146.709 182.263 143.976 183.434 142.712C184.605 141.449 184.175 138.719 183.325 139.777C182.475 140.835 177.029 146.302 175.864 146.722C174.7 147.142 172.023 151.035 170.203 152.828C168.711 154.298 156.575 162.042 152.515 164.594L167.238 164.581Z" fill="#B2B2B2" stroke="#263238" stroke-linecap="round" stroke-linejoin="round"/>
<path d="M188.686 148.899L185.05 150.166" stroke="#263238" stroke-linecap="round" stroke-linejoin="round"/>
<path d="M248.931 164.471L126.399 164.636" stroke="#263238" stroke-linecap="round" stroke-linejoin="round"/>
<path d="M248.712 217.954C248.335 215.159 246.729 204.204 244.376 199.173C243.246 196.726 241.6 194.541 239.546 192.765C237.492 190.989 235.078 189.662 232.463 188.872C228.166 187.6 222.561 186.529 219.761 186.922C219.761 186.922 210.465 190.083 206.469 190.969C202.474 191.855 198.332 194.612 196.632 196.978C195.141 199.078 187.333 214.639 185.642 218.039L248.712 217.954Z" fill="white" stroke="#263238" stroke-linecap="round" stroke-linejoin="round"/>
<path d="M248.712 217.954C248.335 215.159 246.729 204.204 244.376 199.173C243.246 196.726 241.6 194.541 239.546 192.765C237.492 190.989 235.078 189.662 232.463 188.872C228.166 187.6 222.562 186.529 219.761 186.922C219.761 186.922 213.392 189.088 208.926 190.334C207.532 192.479 204.401 197.239 201.471 201.294C197.743 206.436 196.259 213.864 198.289 218.022L248.712 217.954Z" fill="white" stroke="#263238" stroke-linecap="round" stroke-linejoin="round"/>
<path d="M213.755 181.235C214.673 184.663 215.016 188.214 214.77 191.75C214.374 197.746 211.182 201.581 212.389 204.625C213.596 207.669 218.371 208.837 222.587 205.595C226.803 202.353 227.57 194.389 227.669 190.852C227.769 187.315 229.45 176.319 229.45 176.319C229.45 176.319 224.975 181.528 219.746 181.734C214.517 181.939 213.755 181.235 213.755 181.235Z" fill="white" stroke="#263238" stroke-linecap="round" stroke-linejoin="round"/>
<path d="M214.815 153.142C214.815 153.142 208.093 154.325 205.031 160.127C202.05 165.686 203.482 175.026 206.44 180.555C210.185 187.537 209.964 189.929 210.01 196.101C210.046 196.518 209.995 196.938 209.859 197.334C209.723 197.731 209.506 198.096 209.221 198.406C207.684 199.876 207.479 197.675 207.078 198.923C206.676 200.171 210.818 202.925 215.079 199.272C217.839 196.898 218.465 190.27 217.16 186.434C215.855 182.598 209.346 174.659 210.742 168.47C212.138 162.282 217.024 157.168 217.446 154.804C217.869 152.441 214.815 153.142 214.815 153.142Z" fill="#263238"/>
<mask id="mask1_192_242" style="mask-type:luminance" maskUnits="userSpaceOnUse" x="203" y="153" width="15" height="49">
<path d="M214.815 153.142C214.815 153.142 208.093 154.325 205.031 160.127C202.05 165.686 203.482 175.026 206.44 180.555C210.185 187.537 209.964 189.929 210.01 196.101C210.046 196.518 209.995 196.938 209.859 197.334C209.723 197.731 209.506 198.096 209.221 198.406C207.684 199.876 207.479 197.675 207.078 198.923C206.676 200.171 210.818 202.925 215.079 199.272C217.839 196.898 218.465 190.27 217.16 186.434C215.855 182.598 209.346 174.659 210.742 168.47C212.138 162.282 217.024 157.168 217.446 154.804C217.869 152.441 214.815 153.142 214.815 153.142Z" fill="white"/>
</mask>
<g mask="url(#mask1_192_242)">
<path d="M215.103 156.738C215.103 156.738 203.489 163.6 205.319 174.194C207.148 184.789 218.783 187.87 217.7 198.791" stroke="#636363" stroke-linecap="round" stroke-linejoin="round"/>
</g>
<path d="M214.815 153.142C214.815 153.142 208.093 154.325 205.031 160.127C202.05 165.686 203.482 175.026 206.44 180.555C210.185 187.537 209.964 189.929 210.01 196.101C210.046 196.518 209.995 196.938 209.859 197.334C209.723 197.731 209.506 198.096 209.221 198.406C207.684 199.876 207.479 197.675 207.078 198.923C206.676 200.171 210.818 202.925 215.079 199.272C217.839 196.898 218.465 190.27 217.16 186.434C215.855 182.598 209.346 174.659 210.742 168.47C212.138 162.282 217.024 157.168 217.446 154.804C217.869 152.441 214.815 153.142 214.815 153.142Z" stroke="#263238" stroke-linecap="round" stroke-linejoin="round"/>
<path d="M233.518 217.975L248.712 217.954L248.712 217.815L248.712 217.705L248.711 217.543L248.711 217.389L248.711 217.323L248.711 217.176L248.711 217.132L248.711 216.942L248.71 216.743L248.71 216.692L248.71 216.516L248.71 216.435C248.713 216.369 248.713 216.303 248.71 216.237L248.71 216.186C248.709 216.112 248.709 216.039 248.709 215.965L248.709 215.914C248.709 215.841 248.709 215.775 248.709 215.709L248.709 215.613C248.709 215.547 248.709 215.481 248.708 215.408L248.708 215.334L248.663 215.07L248.618 214.806L248.618 214.747L248.573 214.461C248.573 214.351 248.535 214.241 248.52 214.131C248.467 213.794 248.407 213.441 248.347 213.082C248.347 212.972 248.346 212.862 248.287 212.752L248.287 212.715C248.286 212.605 248.249 212.495 248.226 212.385L248.226 212.334C248.226 212.231 248.189 212.128 248.166 212.018L248.166 211.937C248.166 211.842 248.166 211.747 248.113 211.651L248.113 211.534L248.068 211.277L248.068 211.145L248.023 210.895L248.022 210.771C248.022 210.683 247.985 210.595 247.97 210.507L247.97 210.382C247.97 210.294 247.932 210.206 247.917 210.118L247.917 209.986C247.917 209.898 247.917 209.817 247.864 209.729L247.864 209.597C247.864 209.509 247.864 209.421 247.811 209.333L247.811 209.193C247.811 209.113 247.774 209.025 247.759 208.936L247.758 208.797C247.758 208.709 247.721 208.628 247.698 208.54L247.698 208.401C247.698 208.313 247.698 208.225 247.638 208.137C247.641 208.093 247.641 208.049 247.638 208.005C247.638 207.917 247.6 207.821 247.585 207.733L247.585 207.601L246.792 207.118L246.792 207.008C246.792 206.905 246.747 206.795 246.717 206.685L246.717 206.612L246.627 206.23C246.567 205.966 246.499 205.702 246.432 205.438L246.432 205.379C246.431 205.269 246.379 205.159 246.356 205.049L246.356 204.932L246.289 204.667C246.274 204.622 246.261 204.575 246.251 204.528L246.184 204.279C246.183 204.235 246.183 204.183 246.146 204.139C246.109 204.095 246.108 203.985 246.086 203.904L246.041 203.75C246.041 203.677 246.003 203.604 245.981 203.53L245.936 203.376L245.876 203.164L245.831 203.002C245.831 202.936 245.793 202.87 245.771 202.797L245.726 202.643C245.702 202.578 245.682 202.512 245.666 202.445C245.666 202.386 245.628 202.335 245.613 202.283C245.598 202.232 245.613 202.151 245.553 202.093C245.493 202.034 245.553 201.99 245.501 201.931C245.484 201.869 245.464 201.808 245.441 201.748C245.426 201.695 245.409 201.644 245.388 201.594C245.371 201.529 245.351 201.466 245.328 201.403C245.328 201.359 245.328 201.308 245.276 201.256C245.223 201.205 245.238 201.132 245.216 201.073C245.193 201.014 245.178 200.978 245.163 200.926L245.096 200.75C245.081 200.703 245.064 200.656 245.043 200.611C245.026 200.551 245.006 200.492 244.983 200.435C244.962 200.392 244.945 200.348 244.931 200.303L244.863 200.127C244.863 200.083 244.863 200.039 244.811 200.002L244.736 199.826L244.691 199.709C244.691 199.643 244.638 199.584 244.608 199.525C244.593 199.492 244.58 199.458 244.571 199.423L244.444 199.159C243.364 196.845 241.823 194.766 239.913 193.046C238.003 191.326 235.762 189.998 233.322 189.142C232.66 191.425 230.996 197.812 231.406 203.088C231.771 208.107 232.961 214.945 233.518 217.975Z" fill="white" stroke="#263238" stroke-linecap="round" stroke-linejoin="round"/>
<path d="M215.719 153.53C215.719 153.53 211.921 156.382 210.73 159.532C209.539 162.682 208.541 170.631 208.747 173.779C208.953 176.927 213.054 182.418 214.737 183.788C216.419 185.158 223.7 183.578 227.132 180.432C229.505 178.227 231.519 170.703 229.911 163.337C228.302 155.971 220.617 151.755 215.719 153.53Z" fill="white" stroke="#263238" stroke-linecap="round" stroke-linejoin="round"/>
<path d="M219.04 167.872C219.04 167.872 221.233 165.609 224.934 167.468" stroke="#263238" stroke-linecap="round" stroke-linejoin="round"/>
<path d="M213.638 166.603C213.466 165.903 213.106 165.262 212.595 164.746C212.084 164.231 211.442 163.859 210.735 163.671" stroke="#263238" stroke-linecap="round" stroke-linejoin="round"/>
<path d="M215.437 165.617C215.437 165.617 215.237 167.481 214.536 168.172C213.835 168.862 212.342 169.547 212.941 170.926C213.541 172.305 215.341 172.588 216.14 171.802" stroke="#263238" stroke-linecap="round" stroke-linejoin="round"/>
<path d="M210.927 161.792C210.927 161.792 212.627 159.728 215.409 161.786" stroke="#263238" stroke-linecap="round" stroke-linejoin="round"/>
<path d="M218.533 162.765C218.533 162.765 221.825 160.794 224.429 164.423" stroke="#263238" stroke-linecap="round" stroke-linejoin="round"/>
<path d="M212.744 174.067C212.744 174.067 214.151 175.929 217.975 175.432C221.799 174.935 222.671 173.364 222.671 173.364" stroke="#263238" stroke-linecap="round" stroke-linejoin="round"/>
<path d="M221.834 167.817C221.834 168.001 221.779 168.182 221.675 168.335C221.571 168.488 221.423 168.608 221.25 168.679C221.076 168.75 220.886 168.768 220.701 168.733C220.517 168.697 220.348 168.608 220.215 168.478C220.082 168.348 219.992 168.182 219.955 168.001C219.918 167.821 219.937 167.633 220.008 167.463C220.08 167.292 220.201 167.147 220.357 167.044C220.513 166.941 220.696 166.887 220.884 166.886C221.136 166.886 221.377 166.984 221.555 167.158C221.733 167.333 221.834 167.57 221.834 167.817Z" fill="#263238"/>
<path d="M213.031 165.664C213.032 165.848 212.976 166.029 212.872 166.182C212.768 166.335 212.62 166.455 212.447 166.526C212.274 166.597 212.083 166.615 211.899 166.58C211.715 166.544 211.546 166.455 211.413 166.325C211.28 166.195 211.189 166.029 211.152 165.848C211.116 165.668 211.134 165.48 211.206 165.31C211.277 165.139 211.399 164.994 211.554 164.891C211.71 164.789 211.894 164.734 212.081 164.733C212.333 164.733 212.574 164.831 212.753 165.005C212.931 165.18 213.031 165.417 213.031 165.664Z" fill="#263238"/>
<path d="M214.949 175.341C214.949 175.341 216.552 178.582 219.353 178.27C222.154 177.958 221.947 174.128 221.947 174.128C219.838 175.344 217.354 175.774 214.949 175.341Z" fill="#263238" stroke="#263238" stroke-linecap="round" stroke-linejoin="round"/>
<path d="M224 145.079L223.775 145.08C220.19 145.488 215.485 146.236 212.612 148.507C209.112 151.256 210.316 151.945 213.515 153.511C216.715 155.077 226.224 160.274 227.138 167.736C228.052 175.198 224.96 186.893 223.473 192.201C221.986 197.508 223.978 201.138 226.887 203.688C227.543 204.285 228.321 204.736 229.17 205.01C230.018 205.285 230.917 205.378 231.805 205.281C233.433 205.118 235.479 204.689 236.77 203.646C236.912 203.535 238.546 201.838 238.262 201.611C236.826 200.416 235.102 202.136 234.226 200.493C232.436 197.12 235.202 193.073 237.074 190.296C238.602 188.027 241.147 186.622 242.698 184.418C244.206 182.041 245.119 179.346 245.362 176.555C246.063 170.58 244.912 164.249 242.768 158.652C239.987 151.391 234.241 144.941 225.792 144.974C225.21 144.982 224.597 145.012 224 145.079Z" fill="#263238"/>
<mask id="mask2_192_242" style="mask-type:luminance" maskUnits="userSpaceOnUse" x="210" y="144" width="36" height="62">
<path d="M224 145.079L223.775 145.08C220.19 145.488 215.485 146.236 212.612 148.507C209.112 151.256 210.316 151.945 213.515 153.511C216.715 155.077 226.224 160.274 227.138 167.736C228.052 175.198 224.96 186.893 223.473 192.201C221.986 197.508 223.978 201.138 226.887 203.688C227.543 204.285 228.321 204.736 229.17 205.01C230.018 205.285 230.917 205.378 231.805 205.281C233.433 205.118 235.479 204.689 236.77 203.646C236.912 203.535 238.546 201.838 238.262 201.611C236.826 200.416 235.102 202.136 234.226 200.493C232.436 197.12 235.202 193.073 237.074 190.296C238.602 188.027 241.147 186.622 242.698 184.418C244.206 182.041 245.119 179.346 245.362 176.555C246.063 170.58 244.912 164.249 242.768 158.652C239.987 151.391 234.241 144.941 225.792 144.974C225.21 144.982 224.597 145.012 224 145.079Z" fill="white"/>
</mask>
<g mask="url(#mask2_192_242)">
<path d="M208.175 148.183C208.175 148.183 218.634 149.277 225.309 158.155C231.985 167.033 233.89 173.062 233.737 181.311C233.584 189.56 240.379 193.367 245.381 190.975" stroke="#636363" stroke-linecap="round" stroke-linejoin="round"/>
<path d="M217.374 145.631C217.374 145.631 230.951 148.152 235.324 161.473C239.697 174.794 237.945 182.913 243.773 183.998" stroke="#636363" stroke-linecap="round" stroke-linejoin="round"/>
<path d="M224.191 170.536C224.191 170.536 229.219 182.433 227.957 193.699C226.695 204.965 231.71 207.028 239.768 204.948" stroke="#636363" stroke-linecap="round" stroke-linejoin="round"/>
</g>
<path d="M224 145.079L223.775 145.08C220.19 145.488 215.485 146.236 212.612 148.507C209.112 151.256 210.316 151.945 213.515 153.511C216.715 155.077 226.224 160.274 227.138 167.736C228.052 175.198 224.96 186.893 223.473 192.201C221.986 197.508 223.978 201.138 226.887 203.688C227.543 204.285 228.321 204.736 229.17 205.01C230.018 205.285 230.917 205.378 231.805 205.281C233.433 205.118 235.479 204.689 236.77 203.646C236.912 203.535 238.546 201.838 238.262 201.611C236.826 200.416 235.102 202.136 234.226 200.493C232.436 197.12 235.202 193.073 237.074 190.296C238.602 188.027 241.147 186.622 242.698 184.418C244.206 182.041 245.119 179.346 245.362 176.555C246.063 170.58 244.912 164.249 242.768 158.652C239.987 151.391 234.241 144.941 225.792 144.974C225.21 144.982 224.597 145.012 224 145.079Z" stroke="#263238" stroke-linecap="round" stroke-linejoin="round"/>
<path d="M175.384 200.052C176.191 200.768 177.148 201.303 178.187 201.619C178.187 201.619 179.792 206.43 179.693 210.261C179.688 212.866 179.876 215.468 180.256 218.047L192.507 218.03C190.257 214.231 188.342 210.248 186.784 206.127C184.879 200.531 185.674 197.381 184.369 193.751C183.064 190.12 182.457 188.352 180.257 185.508C178.057 182.663 176.056 183.547 176.057 184.53C176.059 185.513 177.254 185.901 178.16 187.279C178.779 188.3 179.282 189.384 179.659 190.513C179.659 190.513 175.455 192.39 174.263 194.454C173.071 196.518 174.082 198.872 175.384 200.052Z" fill="white" stroke="#263238" stroke-linecap="round" stroke-linejoin="round"/>
<path d="M172.476 192.886C172.476 192.886 170.879 194.356 170.881 195.824C170.883 197.291 172.081 199.359 172.686 199.358C173.291 199.358 173.581 198.278 173.281 197.2C172.98 196.122 172.476 192.886 172.476 192.886Z" fill="white" stroke="#263238" stroke-linecap="round" stroke-linejoin="round"/>
<path d="M174.37 190.814C174.37 190.814 172.474 191.998 171.976 193.474C171.811 194.115 171.797 194.785 171.937 195.433C172.076 196.08 172.365 196.687 172.78 197.208C173.379 198.088 175.18 198.284 175.679 197.791C176.179 197.299 175.774 196.221 175.676 195.59C175.578 194.959 174.575 193.037 174.671 192.157C174.729 191.699 174.764 191.238 174.774 190.777L174.37 190.814Z" fill="white" stroke="#263238" stroke-linecap="round" stroke-linejoin="round"/>
<path d="M179.674 190.513C179.674 190.513 177.064 188.946 175.071 190.028C173.078 191.109 173.171 193.274 173.875 194.844C174.579 196.413 176.381 197.299 177.179 196.608C177.978 195.917 177.072 194.839 177.272 193.371C177.472 191.903 179.674 190.513 179.674 190.513Z" fill="white" stroke="#263238" stroke-linecap="round" stroke-linejoin="round"/>
<path d="M182.277 193.262C182.277 193.262 180.167 190.513 178.269 190.713C176.372 190.914 173.277 194.389 173.876 195.24C174.474 196.09 178.051 194.735 178.051 194.735C178.051 194.735 177.054 197.98 179.55 198.659" fill="white"/>
<path d="M182.277 193.262C182.277 193.262 180.167 190.513 178.269 190.713C176.372 190.914 173.277 194.389 173.876 195.24C174.474 196.09 178.051 194.735 178.051 194.735C178.051 194.735 177.054 197.98 179.55 198.659" stroke="#263238" stroke-linecap="round" stroke-linejoin="round"/>
<path d="M249.003 217.954L126.471 218.119" stroke="#263238" stroke-linecap="round" stroke-linejoin="round"/>
<path d="M249.082 275.994L126.55 276.16" stroke="#263238" stroke-linecap="round" stroke-linejoin="round"/>
<path d="M192.451 275.836C192.451 275.836 193.528 266.338 189.775 263.848C186.022 261.358 169.706 249.873 163.422 248.473C157.138 247.072 153.274 245.757 150.721 247.184C148.168 248.611 137.708 257.901 133.364 260.842C129.021 263.783 126.851 266.905 126.249 269.159C125.876 271.155 125.756 273.189 125.891 275.214L125.893 276.16C125.893 276.16 192.697 275.593 192.451 275.836Z" fill="#263238" stroke="#263238" stroke-linecap="round" stroke-linejoin="round"/>
<path d="M150.736 247.169C149.736 247.807 148.777 248.504 147.863 249.257C147.894 251.697 148.404 254.109 149.367 256.359C152.499 263.81 159.534 268.028 165.067 265.782C169.785 263.868 171.921 257.906 170.545 251.589C168.309 250.262 165.914 249.21 163.415 248.458C157.138 247.043 153.274 245.742 150.736 247.169Z" fill="white" stroke="#263238" stroke-linecap="round" stroke-linejoin="round"/>
<path d="M152.17 236.013C152.17 236.013 151.941 243.256 151.34 246.339C150.739 249.422 150.745 253.583 153.777 258.811C156.81 264.039 164.168 263.78 166.48 261.729C168.793 259.679 168.278 254.014 168.275 251.879C168.272 249.743 169.543 244.722 169.543 244.722C169.543 244.722 162.465 242.038 158.839 239.673C155.212 237.307 153.38 235.299 152.17 236.013Z" fill="white" stroke="#263238" stroke-linecap="round" stroke-linejoin="round"/>
<path d="M171.357 216.65C171.357 216.65 174.262 221.511 174.989 222.934C175.274 223.562 175.391 224.251 175.328 224.936C175.264 225.621 175.024 226.278 174.628 226.846C173.972 227.749 179.862 230.559 179.76 232.042C179.657 233.524 179.128 234.34 177.942 236.022C176.645 237.858 177.135 240.932 176.562 243.091C176.079 244.926 175.482 245.382 173.578 246.074C169.95 247.385 163.189 246.917 159.802 245.263C156.416 243.609 155.209 240.639 153.996 238.505C152.783 236.371 152.659 232.453 153.378 228.298C154.097 224.144 159.766 218.559 163.387 217.013C167.008 215.467 171.357 216.65 171.357 216.65Z" fill="white" stroke="#263238" stroke-linecap="round" stroke-linejoin="round"/>
<path d="M174.883 238.594C173.891 238.855 172.856 238.916 171.839 238.775C170.823 238.634 169.845 238.293 168.966 237.773C168.966 237.773 168.97 241.332 170.786 241.44C172.601 241.548 174.883 238.594 174.883 238.594Z" fill="#263238"/>
<path d="M171.374 228.993C171.562 229.793 171.376 230.519 170.943 230.615C170.51 230.711 170.031 230.14 169.843 229.34C169.655 228.54 169.841 227.814 170.274 227.718C170.707 227.622 171.164 228.193 171.374 228.993Z" fill="#263238"/>
<path d="M166.657 226.622C167.073 226.006 167.653 225.514 168.333 225.199C169.013 224.884 169.769 224.757 170.517 224.833" stroke="#263238" stroke-linecap="round" stroke-linejoin="round"/>
<path d="M178.262 234.906C178.262 234.906 176.397 236.89 175.239 237.038C174.082 237.186 172.787 235.625 173.361 234.634" stroke="#263238" stroke-linecap="round" stroke-linejoin="round"/>
<path d="M156.884 236.006C157.459 235.822 160.268 236.244 159.87 234.696C159.472 233.148 158.665 232.922 159.261 231.761C159.857 230.601 166.024 227.716 164.691 225.347C163.805 223.817 162.751 222.386 161.548 221.081C161.548 221.081 171.69 219.166 173.859 216.199C176.029 213.231 173.61 208.604 171.07 208.607C168.53 208.61 169.742 209.438 162.984 211.553C156.227 213.669 152.832 211.097 147.766 216.322C142.701 221.546 144.284 231.737 146.223 234.956C148.162 238.175 152.028 240.761 153.961 240.046C155.895 239.332 155.436 236.485 156.884 236.006Z" fill="#263238" stroke="#263238" stroke-linecap="round" stroke-linejoin="round"/>
<path d="M158.686 237.075C158.686 237.075 154.196 231.504 151.21 233.284C148.225 235.064 152.669 240.408 154.605 240.999C156.54 241.591 158.832 240.157 158.832 240.157" fill="white"/>
<path d="M158.686 237.075C158.686 237.075 154.196 231.504 151.21 233.284C148.225 235.064 152.669 240.408 154.605 240.999C156.54 241.591 158.832 240.157 158.832 240.157" stroke="#263238" stroke-linecap="round" stroke-linejoin="round"/>
<path d="M248.321 309.804L125.669 309.969" stroke="#263238" stroke-linecap="round" stroke-linejoin="round"/>
<path d="M183.984 306.735C183.984 306.735 183.863 300.204 184.855 299.219C185.847 298.235 210.324 285.036 217.197 285.13C224.069 285.223 233.472 294.406 238.487 296.843C246.471 300.75 246.474 302.923 247.141 305.101C247.809 307.28 248.365 309.782 248.365 309.782L183.988 309.869L183.984 306.735Z" fill="white"/>
<mask id="mask3_192_242" style="mask-type:luminance" maskUnits="userSpaceOnUse" x="183" y="285" width="66" height="25">
<path d="M183.984 306.735C183.984 306.735 183.863 300.204 184.855 299.219C185.847 298.235 210.324 285.036 217.197 285.13C224.069 285.223 233.472 294.406 238.487 296.843C246.471 300.75 246.474 302.923 247.141 305.101C247.809 307.28 248.365 309.782 248.365 309.782L183.988 309.869L183.984 306.735Z" fill="white"/>
</mask>
<g mask="url(#mask3_192_242)">
<path d="M248.05 308.468C246.197 308.346 244.202 308.239 242.073 308.154L242.918 302.913L246.429 303.055C245.983 302.132 245.346 301.31 244.558 300.643L243.288 300.593L243.429 299.742C243.257 299.617 243.077 299.485 242.883 299.361L242.69 300.572L241.548 300.53L241.844 298.695C241.201 298.306 240.468 297.897 239.639 297.465L239.55 297.986C237.107 297.857 234.649 297.765 232.199 297.695L232.604 294.025L234.099 294.06C232.655 293.034 231.108 291.862 229.47 290.749L229.337 291.644C226.64 291.611 223.951 291.6 221.306 291.597L221.8 286.239L221.224 286.005L220.709 291.597L219.499 291.599L219.946 285.566C219.183 285.338 218.396 285.194 217.6 285.136L217.116 291.61C215.689 291.612 214.277 291.613 212.88 291.615L213.32 285.744L212.708 285.928L212.283 291.594L210.273 291.597L210.423 286.672C209.677 286.945 208.848 287.254 208.027 287.578L207.905 291.629C205.828 291.632 203.819 291.701 201.892 291.748L201.964 290.192L201.36 290.471L201.294 291.763L199.748 291.765L199.747 291.185C197.567 292.223 195.44 293.275 193.499 294.276L197.234 294.161L197.089 297.904L193.131 298.188L193.26 294.519L192.655 294.828L192.541 298.203L191.495 298.256L191.648 295.321C190.767 295.784 189.946 296.218 189.199 296.623L189.112 298.362L185.766 298.565C185.459 298.735 185.167 298.929 184.892 299.146L184.84 299.212L189.083 298.949L188.988 300.747L184.305 300.93C184.194 301.664 184.127 302.471 184.084 303.271C185.443 303.218 187.072 303.15 188.864 303.089L188.609 307.94L184.023 308.034L184.024 308.614L188.58 308.519L188.515 309.811L190.89 309.808L190.956 308.472L192.188 308.471L192.138 309.821L192.736 309.82L192.778 308.455L196.79 308.391L196.732 309.815L199.107 309.811L199.165 308.344L200.585 308.342L200.519 309.81L201.117 309.809L201.182 308.341L207.45 308.281L207.407 309.808L209.775 309.804L209.825 308.271L211.072 308.269L210.963 309.81L211.553 309.809L211.67 308.268L215.898 308.262L215.781 309.811L218.156 309.808L218.274 308.266L219.207 308.265L219.068 309.799L219.665 309.798L219.805 308.264C222.188 308.261 224.571 308.258 226.924 308.313L226.709 309.781L229.1 309.778L229.315 308.31L230.465 308.309L230.31 309.725L230.908 309.724L231.063 308.315C233.393 308.356 235.672 308.412 237.875 308.482L237.675 309.715L240.073 309.712L240.259 308.56L241.431 308.602L241.254 309.71L241.851 309.71L242.022 308.631C244.218 308.723 246.287 308.83 248.207 308.953C248.155 308.887 248.102 308.688 248.05 308.468ZM192.173 307.942L190.948 307.944L191.202 303.056L192.338 303.018L192.173 307.942ZM192.417 300.706L191.326 300.744L191.428 298.887L192.482 298.835L192.417 300.706ZM196.774 307.87L192.763 307.934L192.928 303.017L196.969 302.901L196.774 307.87ZM197.056 300.568L193.007 300.683L193.072 298.804C194.342 298.737 195.701 298.676 197.135 298.616L197.056 300.568ZM200.576 307.821L199.15 307.823L199.345 302.818L200.839 302.815L200.576 307.821ZM200.918 300.482L199.424 300.52L199.503 298.532L200.997 298.471L200.918 300.482ZM201.034 297.891L199.54 297.944L199.684 294.238L201.215 294.236L201.034 297.891ZM207.434 307.767L201.174 307.827L201.399 302.8L207.584 302.674L207.434 307.767ZM207.655 300.348C205.534 300.351 203.48 300.42 201.508 300.466L201.602 298.448C203.544 298.379 205.591 298.318 207.72 298.271L207.655 300.348ZM207.734 297.684C205.613 297.738 203.573 297.8 201.631 297.868L201.798 294.199C203.74 294.152 205.765 294.113 207.849 294.081L207.734 297.684ZM210.217 294.011L212.129 294.009L211.857 297.598L210.109 297.6L210.217 294.011ZM211.072 307.704L209.802 307.706L209.959 302.568L211.453 302.566L211.072 307.704ZM210.001 300.264L210.065 298.172L211.783 298.17L211.629 300.276L210.001 300.264ZM215.927 307.697L211.699 307.703L212.081 302.565L216.316 302.56L215.927 307.697ZM216.485 300.211L212.257 300.217L212.411 298.111C213.8 298.109 215.212 298.092 216.646 298.061L216.485 300.211ZM216.69 297.51L212.455 297.553L212.719 293.971L216.955 293.965L216.69 297.51ZM219.337 293.926L220.51 293.924L220.186 297.498L219.066 297.5L219.337 293.926ZM219.244 307.693L218.303 307.694L218.692 302.52L219.723 302.518L219.244 307.693ZM218.868 300.186L219.022 298.072L220.127 298.071L219.936 300.185L218.868 300.186ZM226.991 307.748C224.63 307.752 222.24 307.703 219.842 307.699L220.32 302.518C222.77 302.514 225.25 302.511 227.753 302.544L226.991 307.748ZM228.093 300.218C225.554 300.221 223.021 300.18 220.534 300.184L220.725 298.07C223.242 298.067 225.812 298.1 228.397 298.148L228.093 300.218ZM228.486 297.568C225.886 297.52 223.309 297.494 220.777 297.49L221.108 293.916C223.715 293.912 226.337 293.909 229.011 293.964L228.486 297.568ZM231.409 293.997L232.044 293.996L231.638 297.666L230.891 297.667L231.409 293.997ZM230.787 298.203L231.579 298.202L231.35 300.235L230.491 300.236L230.787 298.203ZM230.494 307.832L229.359 307.833L230.099 302.622L231.04 302.621L230.494 307.832ZM237.964 308.005C235.723 307.935 233.482 307.879 231.129 307.838L231.705 302.62C234.08 302.653 236.456 302.709 238.824 302.771L237.964 308.005ZM239.202 300.452C236.796 300.382 234.376 300.334 231.963 300.293L232.184 298.275C234.627 298.345 237.07 298.437 239.513 298.566L239.202 300.452ZM241.52 308.132L240.355 308.083L241.214 302.849L242.365 302.884L241.52 308.132Z" fill="#ADADAD"/>
</g>
<path d="M183.984 306.735C183.984 306.735 183.863 300.204 184.855 299.219C185.847 298.235 210.324 285.036 217.197 285.13C224.069 285.223 233.472 294.406 238.487 296.843C246.471 300.75 246.474 302.923 247.141 305.101C247.809 307.28 248.365 309.782 248.365 309.782L183.988 309.869L183.984 306.735Z" stroke="#263238" stroke-linecap="round" stroke-linejoin="round"/>
<path d="M213.533 282.522C213.533 282.522 210.209 282.747 209.33 284.384C208.45 286.022 208.885 286.998 207.099 291.895C205.313 296.792 204.336 298.217 205.337 298.216C206.338 298.214 209.068 295.378 210.091 294.943C211.114 294.509 213.427 298.307 213.427 298.307C213.427 298.307 217.854 296.019 219.295 295.907C220.737 295.795 223.845 301.669 224.397 300.692C224.948 299.715 226.385 296.118 227.934 292.85C229.484 289.582 229.809 286.859 228.476 284.681C227.143 282.504 214.645 281.867 213.533 282.522Z" fill="#263238" stroke="#263238" stroke-linecap="round" stroke-linejoin="round"/>
<path d="M211.537 281.439C211.03 284.794 210.997 288.202 211.438 291.566C212.192 296.46 213.339 299.291 214.219 298.637C215.1 297.982 220.534 294.709 223.301 291.33C226.068 287.95 226.508 287.517 227.282 285.666C228.056 283.816 228.935 281.745 228.935 281.745C228.935 281.745 218.639 285.568 211.537 281.439Z" fill="white" stroke="#263238" stroke-linecap="round" stroke-linejoin="round"/>
<path d="M211.625 263.474C211.625 263.474 209.626 260.431 208.525 264.028C207.425 267.626 210.079 269.574 210.415 269.354C210.751 269.133 211.625 263.474 211.625 263.474Z" fill="white" stroke="#263238" stroke-linecap="round" stroke-linejoin="round"/>
<path d="M212.615 255.855C212.615 255.855 208.976 271.425 208.205 275.895C207.434 280.365 212.43 284.483 217.974 285.239C223.518 285.994 228.825 283.375 230.263 280.65C231.701 277.926 236.212 260.505 236.883 259.308C237.554 258.111 239.862 252.883 238.097 251.139C236.332 249.394 233.442 250.712 233.442 250.712C233.442 250.712 231.434 245.702 228.005 245.582C224.576 245.462 224.122 246.997 224.122 246.997C224.122 246.997 221.129 243.412 218.359 244.179C215.589 244.946 215.591 246.685 215.591 246.685C215.591 246.685 210.495 245.496 208.617 249.087C206.74 252.678 211.948 253.764 211.948 253.764C211.948 253.764 210.837 255.314 212.615 255.855Z" fill="white" stroke="#263238" stroke-linecap="round" stroke-linejoin="round"/>
<path d="M232.906 268.567C233.242 268.457 235.456 264.968 237.557 266.359C239.658 267.751 237.238 273.111 235.468 273.98C235.166 274.14 234.833 274.237 234.491 274.264C234.148 274.29 233.804 274.246 233.48 274.134C233.156 274.021 232.86 273.844 232.61 273.612C232.361 273.38 232.163 273.099 232.031 272.788" fill="white"/>
<path d="M232.906 268.567C233.242 268.457 235.456 264.968 237.557 266.359C239.658 267.751 237.238 273.111 235.468 273.98C235.166 274.14 234.833 274.237 234.491 274.264C234.148 274.29 233.804 274.246 233.48 274.134C233.156 274.021 232.86 273.844 232.61 273.612C232.361 273.38 232.163 273.099 232.031 272.788" stroke="#263238" stroke-linecap="round" stroke-linejoin="round"/>
<path d="M238.097 251.161C236.317 249.424 233.443 250.734 233.443 250.734C233.443 250.734 231.434 245.724 228.005 245.604C224.576 245.484 224.122 247.019 224.122 247.019C224.122 247.019 221.129 243.434 218.359 244.201C215.589 244.968 215.591 246.707 215.591 246.707C215.591 246.707 210.495 245.518 208.617 249.109C206.74 252.7 211.948 253.786 211.948 253.786C211.948 253.786 210.837 255.314 212.615 255.855C213.279 255.201 214.605 252.264 221.365 252.174C228.126 252.084 233.555 256.839 233.555 256.839C233.555 256.839 231.124 259.668 231.902 260.863C232.681 262.058 233.562 261.954 233.459 262.931C233.356 263.907 231.231 272.841 230.367 274.258C229.89 274.946 229.21 275.473 228.417 275.767C227.625 276.061 226.76 276.108 225.939 275.901C224.385 275.462 223.494 274.377 220.706 272.972C217.918 271.567 215.601 271.02 213.608 271.786C211.614 272.552 211.503 273.205 210.398 273.529C209.442 273.817 209.143 273.201 208.865 272.474C208.568 273.891 208.331 275.102 208.183 275.932C207.442 280.395 212.408 284.52 217.951 285.275C223.495 286.031 228.803 283.411 230.241 280.687C231.679 277.962 236.19 260.542 236.86 259.345C237.531 258.148 239.87 252.883 238.097 251.161Z" fill="white" stroke="#263238" stroke-linecap="round" stroke-linejoin="round"/>
<path d="M214.081 273.818C214.081 273.818 218.178 276.315 220.948 274.785C220.948 274.785 218.181 278.054 216.746 278.056C215.312 278.058 214.081 273.818 214.081 273.818Z" fill="#263238" stroke="#263238" stroke-linecap="round" stroke-linejoin="round"/>
<path d="M217.169 264.611C217.17 265.337 216.952 266.046 216.542 266.65C216.133 267.254 215.55 267.725 214.868 268.004C214.186 268.283 213.435 268.356 212.71 268.216C211.985 268.075 211.319 267.727 210.796 267.214C210.273 266.702 209.917 266.048 209.772 265.337C209.627 264.625 209.7 263.887 209.981 263.217C210.263 262.546 210.741 261.972 211.355 261.568C211.968 261.164 212.69 260.948 213.429 260.947C214.42 260.946 215.37 261.331 216.072 262.018C216.773 262.705 217.168 263.638 217.169 264.611Z" stroke="#263238" stroke-linecap="round" stroke-linejoin="round"/>
<path d="M227.921 266.446C227.922 267.172 227.704 267.881 227.294 268.485C226.885 269.089 226.302 269.56 225.62 269.839C224.938 270.118 224.187 270.191 223.462 270.051C222.737 269.91 222.071 269.562 221.548 269.049C221.025 268.537 220.669 267.883 220.524 267.172C220.379 266.46 220.451 265.722 220.733 265.051C221.015 264.381 221.493 263.807 222.107 263.403C222.72 262.999 223.442 262.783 224.181 262.782C225.172 262.78 226.122 263.166 226.823 263.853C227.525 264.54 227.92 265.473 227.921 266.446Z" stroke="#263238" stroke-linecap="round" stroke-linejoin="round"/>
<path d="M217.281 264.229C217.281 264.229 218.826 263.493 220.718 264.959" stroke="#263238" stroke-linecap="round" stroke-linejoin="round"/>
<path d="M227.921 266.446L235.122 266.708" stroke="#263238" stroke-linecap="round" stroke-linejoin="round"/>
<path d="M217.834 264.669C216.924 266.365 216.113 268.11 215.406 269.897C215.183 270.874 216.401 271.415 217.955 271.413C219.509 271.411 220.195 270.757 220.194 270.104" stroke="#263238" stroke-linecap="round" stroke-linejoin="round"/>
<path d="M217.492 260.53C217.341 260.529 217.192 260.491 217.059 260.421C216.478 260.048 215.804 259.838 215.11 259.813C214.417 259.788 213.729 259.949 213.122 260.28C213.024 260.344 212.914 260.389 212.798 260.412C212.682 260.435 212.563 260.435 212.447 260.413C212.213 260.368 212.007 260.233 211.874 260.039C211.741 259.845 211.692 259.606 211.738 259.376C211.784 259.146 211.921 258.944 212.119 258.813C213 258.3 214.008 258.034 215.033 258.044C216.058 258.054 217.06 258.34 217.931 258.871C218.104 258.965 218.24 259.114 218.317 259.292C218.395 259.471 218.41 259.67 218.359 259.857C218.309 260.045 218.197 260.211 218.039 260.329C217.882 260.447 217.69 260.51 217.492 260.508L217.492 260.53Z" fill="white"/>
<path d="M228.359 264.112C228.213 264.115 228.069 264.083 227.939 264.019C227.808 263.956 227.696 263.862 227.611 263.746C227.087 262.952 226.326 262.338 225.431 261.988C224.537 261.639 223.554 261.57 222.618 261.793C222.396 261.853 222.159 261.826 221.957 261.718C221.755 261.61 221.604 261.429 221.535 261.213C221.466 260.997 221.484 260.764 221.587 260.561C221.69 260.359 221.869 260.204 222.086 260.128C223.379 259.792 224.747 259.862 225.998 260.329C227.249 260.796 228.319 261.636 229.059 262.731C229.155 262.863 229.212 263.019 229.222 263.181C229.233 263.343 229.198 263.504 229.121 263.648C229.043 263.791 228.927 263.91 228.784 263.992C228.642 264.074 228.479 264.116 228.314 264.112L228.359 264.112Z" fill="white"/>
<path d="M213.899 266.083C214.295 266.083 214.615 265.497 214.614 264.776C214.613 264.055 214.292 263.47 213.896 263.471C213.499 263.471 213.179 264.057 213.18 264.778C213.181 265.499 213.503 266.084 213.899 266.083Z" fill="#263238" stroke="#263238" stroke-linecap="round" stroke-linejoin="round"/>
<path d="M224.373 266.399C224.374 267.133 224.053 267.706 223.627 267.707C223.202 267.707 222.88 267.121 222.879 266.401C222.878 265.682 223.198 265.095 223.624 265.094C224.05 265.094 224.372 265.68 224.373 266.399Z" fill="#263238" stroke="#263238" stroke-linecap="round" stroke-linejoin="round"/>
<path d="M85.7066 166.14C92.8099 157.231 91.2175 144.353 82.1498 137.375C73.082 130.398 59.9728 131.963 52.8695 140.871C45.7661 149.779 47.3586 162.657 56.4263 169.635C65.494 176.613 78.6032 175.048 85.7066 166.14Z" stroke="#263238" stroke-miterlimit="10"/>
<path d="M61.2896 158.934C61.2896 158.934 75.3717 159.649 80.2026 146.932" stroke="#263238" stroke-width="2" stroke-linecap="round" stroke-linejoin="round"/>
<path d="M72.6531 143.464C73.4015 144.498 73.5748 145.62 73.0674 145.973C72.5599 146.326 71.5731 145.77 70.8247 144.736C70.0763 143.702 69.9029 142.587 70.4104 142.234C70.9179 141.881 71.9047 142.437 72.6531 143.464Z" fill="#263238"/>
<path d="M63.5324 149.215C64.2808 150.241 64.4616 151.364 63.9467 151.717C63.4317 152.07 62.4524 151.521 61.704 150.487C60.9556 149.453 60.7822 148.331 61.2897 147.985C61.7972 147.639 62.7915 148.181 63.5324 149.215Z" fill="#263238"/>
<path d="M306.906 147.286C307.033 150.151 308.022 152.914 309.748 155.226C311.473 157.538 313.858 159.296 316.6 160.278C319.343 161.259 322.32 161.419 325.155 160.739C327.99 160.058 330.557 158.567 332.53 156.454C334.503 154.342 335.794 151.701 336.24 148.868C336.686 146.034 336.267 143.134 335.036 140.535C333.805 137.935 331.817 135.753 329.323 134.263C326.829 132.773 323.942 132.043 321.026 132.164C319.088 132.245 317.185 132.701 315.426 133.505C313.667 134.309 312.087 135.446 310.775 136.85C309.464 138.254 308.447 139.899 307.783 141.69C307.119 143.48 306.821 145.382 306.906 147.286Z" stroke="#263238" stroke-miterlimit="10"/>
<path d="M328.531 146.589C328.531 146.589 320.68 152.647 312.598 147.234" stroke="#263238" stroke-width="2" stroke-linecap="round" stroke-linejoin="round"/>
<path d="M316.351 143.817C316.792 143.816 317.149 143.093 317.148 142.201C317.146 141.31 316.788 140.587 316.346 140.588C315.905 140.589 315.548 141.312 315.549 142.204C315.55 143.095 315.909 143.818 316.351 143.817Z" fill="#263238"/>
<path d="M323.198 141.878C323.199 142.773 323.559 143.492 324 143.491C324.44 143.49 324.798 142.756 324.797 141.876C324.795 140.995 324.436 140.262 323.995 140.262C323.554 140.263 323.197 140.968 323.198 141.878Z" fill="#263238"/>
<path d="M96.7127 317.308C104.301 309.621 104.11 297.346 96.2859 289.892C88.4616 282.437 75.967 282.625 68.3783 290.312C60.7897 297.999 60.9807 310.274 68.8051 317.728C76.6294 325.183 89.1241 324.995 96.7127 317.308Z" stroke="#263238" stroke-miterlimit="10"/>
<path d="M71.4366 310.145C71.4366 310.145 84.1261 303.017 96.3524 301.306C96.3524 301.306 99.8787 312.661 88.1566 317.08C78.0621 320.873 71.4366 310.145 71.4366 310.145Z" stroke="#263238" stroke-miterlimit="10"/>
<path d="M73.9317 304.667C73.7191 304.666 73.5108 304.609 73.3291 304.5C73.1474 304.392 72.999 304.237 72.9 304.052L70.0166 298.589C69.8957 298.324 69.8827 298.024 69.9802 297.749C70.0776 297.475 70.2782 297.248 70.5407 297.114C70.8033 296.981 71.1079 296.951 71.3921 297.031C71.6764 297.111 71.9187 297.294 72.0695 297.544L74.9528 303.008C75.0948 303.275 75.1228 303.587 75.0308 303.875C74.9387 304.162 74.7341 304.402 74.4619 304.542C74.2969 304.622 74.1157 304.665 73.9317 304.667Z" fill="#263238"/>
<path d="M89.2977 299.18C89.0321 299.179 88.7745 299.09 88.5678 298.926C88.3611 298.762 88.2176 298.533 88.161 298.278L86.8155 292.065C86.7947 291.791 86.8751 291.52 87.042 291.3C87.2088 291.08 87.4508 290.927 87.7235 290.868C87.9961 290.81 88.2811 290.85 88.5259 290.982C88.7707 291.113 88.9589 291.327 89.0559 291.585L90.4014 297.806C90.4661 298.101 90.409 298.408 90.2426 298.662C90.0763 298.915 89.8143 299.094 89.5143 299.157L89.2977 299.18Z" fill="#263238"/>
<path d="M91.5606 315.365C90.4889 312.791 86.7749 311.746 83.1461 313.036C81.3081 313.649 79.7439 314.87 78.721 316.491" stroke="#263238" stroke-miterlimit="10"/>
<path d="M311.796 217.436C311.026 219.541 310.908 221.822 311.458 223.993C312.008 226.163 313.2 228.125 314.884 229.629C316.569 231.134 318.67 232.114 320.921 232.445C323.173 232.777 325.474 232.445 327.533 231.492C329.593 230.539 331.319 229.008 332.492 227.091C333.666 225.175 334.235 222.959 334.127 220.725C334.019 218.491 333.24 216.339 331.886 214.54C330.533 212.742 328.668 211.378 326.526 210.621C325.103 210.118 323.593 209.895 322.083 209.966C320.573 210.036 319.092 210.398 317.724 211.031C316.356 211.664 315.129 212.555 314.112 213.654C313.095 214.753 312.308 216.038 311.796 217.436Z" stroke="#263238" stroke-miterlimit="10"/>
<path d="M329.13 224.957C329.13 224.957 321.721 220.813 314.586 219.839C314.586 219.839 312.548 226.447 319.372 229.028C325.261 231.229 329.13 224.957 329.13 224.957Z" stroke="#263238" stroke-miterlimit="10"/>
<path d="M327.661 221.759C327.785 221.761 327.907 221.729 328.014 221.666C328.121 221.604 328.208 221.514 328.266 221.406L329.935 218.211C330.016 218.055 330.032 217.874 329.979 217.706C329.926 217.539 329.807 217.399 329.65 217.316C329.49 217.239 329.305 217.225 329.135 217.279C328.965 217.332 328.823 217.449 328.739 217.604L327.062 220.798C326.981 220.954 326.967 221.135 327.022 221.302C327.076 221.468 327.196 221.606 327.355 221.686C327.449 221.735 327.554 221.76 327.661 221.759Z" fill="#263238"/>
<path d="M318.708 218.586C318.862 218.586 319.012 218.533 319.132 218.436C319.251 218.34 319.334 218.206 319.364 218.057L320.144 214.43C320.166 214.344 320.17 214.254 320.156 214.166C320.142 214.078 320.11 213.994 320.062 213.919C320.014 213.843 319.951 213.778 319.876 213.727C319.802 213.676 319.718 213.641 319.629 213.622C319.541 213.604 319.449 213.604 319.36 213.621C319.271 213.639 319.187 213.674 319.112 213.724C319.037 213.774 318.974 213.839 318.925 213.914C318.876 213.989 318.843 214.073 318.829 214.161L318.049 217.787C318.031 217.872 318.029 217.959 318.045 218.045C318.061 218.13 318.094 218.212 318.142 218.284C318.19 218.357 318.252 218.42 318.325 218.469C318.397 218.519 318.479 218.553 318.566 218.572L318.708 218.586Z" fill="#263238"/>
<path d="M317.383 228.025C318.001 226.557 320.174 225.908 322.289 226.661C323.363 227.01 324.277 227.721 324.869 228.668" stroke="#263238" stroke-miterlimit="10"/>
<path d="M298.882 211.084C301.528 201.593 295.841 191.792 286.179 189.194C276.518 186.595 266.541 192.183 263.896 201.674C261.25 211.165 266.937 220.966 276.599 223.565C286.26 226.163 296.237 220.575 298.882 211.084Z" stroke="#263238" stroke-miterlimit="10"/>
<path d="M267.345 203.369C267.18 203.41 267.006 203.39 266.855 203.314C266.704 203.238 266.586 203.111 266.523 202.956C266.46 202.802 266.456 202.63 266.512 202.472C266.568 202.315 266.68 202.183 266.828 202.1L271.344 199.702L268.319 199.603C268.132 199.597 267.956 199.518 267.829 199.384C267.702 199.25 267.635 199.072 267.642 198.889C267.648 198.706 267.729 198.533 267.865 198.408C268.001 198.283 268.183 198.217 268.369 198.224L273.979 198.407C274.131 198.419 274.276 198.477 274.394 198.573C274.511 198.668 274.596 198.797 274.637 198.942C274.659 199.084 274.637 199.23 274.575 199.361C274.513 199.491 274.413 199.601 274.287 199.676L267.494 203.281L267.345 203.369Z" fill="#263238"/>
<path d="M291.517 196.783C291.462 196.791 291.407 196.791 291.353 196.784L283.972 197.028C283.817 197.035 283.664 196.99 283.538 196.902C283.411 196.814 283.317 196.687 283.272 196.541C283.226 196.395 283.232 196.239 283.286 196.096C283.341 195.953 283.443 195.832 283.575 195.752L288.553 192.692C288.714 192.605 288.902 192.579 289.081 192.619C289.261 192.66 289.419 192.764 289.525 192.911C289.622 193.066 289.654 193.252 289.612 193.43C289.57 193.607 289.459 193.761 289.302 193.858L286.525 195.565L291.306 195.411C291.475 195.409 291.639 195.468 291.768 195.575C291.897 195.683 291.982 195.832 292.007 195.996C292.033 196.16 291.998 196.328 291.908 196.469C291.817 196.609 291.679 196.713 291.517 196.761L291.517 196.783Z" fill="#263238"/>
<path d="M267.05 206.467C270.907 213.426 277.74 217.387 284.02 215.676C290.3 213.965 294.093 207.127 293.761 199.209L291.334 199.462C283.569 200.256 275.996 202.328 268.932 205.591L267.05 206.467Z" stroke="#263238" stroke-miterlimit="10"/>
<path d="M275.451 214.748C275.39 214.401 275.36 214.05 275.359 213.699C275.354 209.662 278.995 206.355 283.492 206.349C284.981 206.318 286.451 206.685 287.744 207.411C289.037 208.137 290.105 209.195 290.833 210.471" stroke="#263238" stroke-miterlimit="10"/>
<path d="M99.6052 219.549C106.549 216.986 110.064 209.378 107.456 202.557C104.848 195.735 97.1042 192.282 90.16 194.845C83.2158 197.407 79.7008 205.015 82.309 211.837C84.9172 218.658 92.661 222.111 99.6052 219.549Z" stroke="#263238" stroke-miterlimit="10"/>
<path d="M105.298 204.931C105.411 204.961 105.531 204.953 105.638 204.907C105.745 204.862 105.833 204.782 105.888 204.681C105.922 204.622 105.943 204.558 105.951 204.491C105.958 204.424 105.952 204.357 105.933 204.292C105.913 204.228 105.88 204.168 105.837 204.116C105.793 204.065 105.739 204.022 105.678 203.991L102.329 202.22L104.57 202.144C104.707 202.136 104.835 202.076 104.928 201.978C105.021 201.879 105.072 201.749 105.07 201.615C105.068 201.547 105.052 201.481 105.024 201.42C104.996 201.359 104.955 201.304 104.905 201.258C104.855 201.213 104.796 201.177 104.732 201.154C104.668 201.131 104.6 201.121 104.531 201.124L100.378 201.269C100.265 201.275 100.157 201.318 100.071 201.39C99.985 201.462 99.9248 201.559 99.8996 201.667C99.8745 201.776 99.8859 201.889 99.932 201.991C99.9781 202.092 100.056 202.176 100.155 202.23L105.186 204.887L105.298 204.931Z" fill="#263238"/>
<path d="M87.3935 200.119L87.513 200.119L92.9738 200.281C93.0885 200.286 93.2017 200.253 93.2954 200.188C93.3892 200.123 93.4582 200.03 93.4915 199.922C93.5248 199.814 93.5205 199.698 93.4793 199.593C93.4381 199.488 93.3623 199.399 93.2639 199.341L89.5706 197.086C89.5119 197.045 89.445 197.016 89.3744 197.002C89.3038 196.988 89.2309 196.989 89.1605 197.004C89.0901 197.019 89.0238 197.049 88.9658 197.091C88.9078 197.133 88.8595 197.186 88.8238 197.248C88.7821 197.306 88.7531 197.371 88.7388 197.441C88.7244 197.51 88.7251 197.582 88.7407 197.651C88.7562 197.72 88.7864 197.785 88.8292 197.842C88.872 197.899 88.9265 197.947 88.9892 197.982L91.0451 199.234L87.5042 199.128C87.4365 199.127 87.3691 199.138 87.3058 199.162C87.2425 199.185 87.1847 199.221 87.1355 199.267C87.0863 199.313 87.0467 199.367 87.0191 199.428C86.9915 199.489 86.9763 199.554 86.9745 199.621C86.9756 199.739 87.0179 199.852 87.0941 199.943C87.1704 200.034 87.2761 200.096 87.3935 200.119Z" fill="#263238"/>
<path d="M105.526 207.228C102.686 212.369 97.6331 215.311 92.9775 214.077C88.322 212.843 85.4989 207.769 85.73 201.905L87.5306 202.086C93.2751 202.66 98.8805 204.178 104.113 206.577L105.526 207.228Z" stroke="#263238" stroke-miterlimit="10"/>
<path d="M99.3262 213.371C99.3646 213.114 99.3842 212.854 99.3849 212.593C99.3809 209.607 96.6809 207.188 93.3492 207.193C92.2479 207.175 91.1623 207.45 90.207 207.989C89.2517 208.528 88.4624 209.31 87.9226 210.253" stroke="#263238" stroke-miterlimit="10"/>
<path d="M314.135 80.0419C315.664 68.826 307.647 58.5172 296.23 57.0164C284.813 55.5157 274.319 63.3913 272.791 74.6072C271.263 85.8231 279.279 96.132 290.696 97.6327C302.113 99.1335 312.607 91.2578 314.135 80.0419Z" stroke="#263238" stroke-miterlimit="10"/>
<path d="M284.863 71.0173C284.865 72.2795 285.366 73.3062 285.994 73.3054C286.621 73.3045 287.113 72.2765 287.111 71.0142C287.11 69.752 286.608 68.7326 285.988 68.7335C285.368 68.7343 284.861 69.755 284.863 71.0173Z" fill="#263238"/>
<path d="M295.664 70.5551C295.666 71.8173 296.168 72.8367 296.788 72.8359C297.408 72.835 297.914 71.8143 297.913 70.5521C297.911 69.2898 297.401 68.2705 296.781 68.2713C296.161 68.2722 295.662 69.3002 295.664 70.5551Z" fill="#263238"/>
<path d="M283.786 64.5315L288.895 69.9478" stroke="#263238" stroke-width="2" stroke-linecap="round" stroke-linejoin="round"/>
<path d="M297.433 64.1094L292.757 69.8031" stroke="#263238" stroke-width="2" stroke-linecap="round" stroke-linejoin="round"/>
<path d="M283.399 82.1445C283.399 82.1445 290.111 74.2759 299.39 80.6552" stroke="#263238" stroke-width="2" stroke-linecap="round" stroke-linejoin="round"/>
<path d="M51.9332 254.287C60.0275 254.196 66.515 247.677 66.4233 239.725C66.3316 231.773 59.6955 225.401 51.6011 225.491C43.5068 225.581 37.0194 232.101 37.1111 240.053C37.2027 248.005 43.8388 254.377 51.9332 254.287Z" stroke="#263238" stroke-miterlimit="10"/>
<path d="M51.9099 232.824C52.5308 233.476 52.7708 234.239 52.45 234.533C52.1292 234.827 51.3743 234.534 50.7534 233.882C50.1325 233.23 49.8999 232.474 50.2208 232.18C50.5416 231.886 51.2964 232.179 51.9099 232.824Z" fill="#263238"/>
<path d="M46.142 237.682C46.7629 238.335 47.003 239.097 46.6822 239.391C46.3614 239.685 45.6065 239.393 44.9856 238.748C44.3647 238.103 44.1321 237.333 44.4529 237.039C44.7737 236.745 45.5286 237.037 46.142 237.682Z" fill="#263238"/>
<path d="M49.2976 228.989L49.3121 234.178" stroke="#263238" stroke-width="2" stroke-linecap="round" stroke-linejoin="round"/>
<path d="M42.0824 235.207L47.2677 235.927" stroke="#263238" stroke-width="2" stroke-linecap="round" stroke-linejoin="round"/>
<path d="M58.1019 237.842C58.1019 237.842 50.795 236.986 49.1469 244.613" stroke="#263238" stroke-width="2" stroke-linecap="round" stroke-linejoin="round"/>
<path d="M110.45 37.2389C113.123 39.3609 115.186 42.1318 116.434 45.2775C117.682 48.4231 118.072 51.8344 117.566 55.1738C117.059 58.5131 115.674 61.6648 113.548 64.3169C111.421 66.969 108.626 69.0295 105.439 70.2947C102.253 71.5598 98.7857 71.9856 95.3805 71.5299C91.9752 71.0743 88.7502 69.753 86.0245 67.6969C83.2987 65.6407 81.1668 62.9209 79.8397 59.8067C78.5126 56.6925 78.0364 53.2918 78.458 49.9411" stroke="#263238" stroke-miterlimit="10"/>
<path d="M91.6361 33.9986C92.6107 33.6765 93.6094 33.4298 94.6232 33.2607" stroke="#263238" stroke-miterlimit="10"/>
<path d="M86.9409 58.6992C86.9409 58.6992 99.6305 51.5636 111.849 49.8593C111.849 49.8593 115.376 61.2219 103.691 65.6335C93.559 69.4192 86.9409 58.6992 86.9409 58.6992Z" stroke="#263238" stroke-miterlimit="10"/>
<path d="M107.087 63.9116C106.023 61.3373 102.302 60.2929 98.6729 61.582C96.8365 62.1984 95.2749 63.4223 94.2553 65.0444" stroke="#263238" stroke-miterlimit="10"/>
<path d="M93.1401 35.8092C92.4719 34.7227 91.4633 33.8783 90.2654 33.4024C89.0674 32.9266 87.7448 32.845 86.4956 33.1699C85.2465 33.4948 84.1382 34.2087 83.3368 35.2046C82.5355 36.2004 82.0843 37.4246 82.0509 38.6936C80.8952 38.1268 79.5837 37.9432 78.3128 38.1702C77.0419 38.3972 75.8801 39.0226 75.0014 39.9527C74.1226 40.8829 73.5743 42.0677 73.4386 43.3296C73.3028 44.5915 73.5869 45.8627 74.2483 46.9526C77.0558 51.5428 90.3163 52.3174 90.3163 52.3174C90.3163 52.3174 96.7262 41.6679 93.1401 35.8092Z" stroke="#263238" stroke-miterlimit="10"/>
<path d="M112.26 33.5599C112.374 32.5397 112.147 31.511 111.614 30.6284C111.081 29.7457 110.271 29.0569 109.305 28.6652C108.339 28.2736 107.271 28.2003 106.259 28.4565C105.247 28.7126 104.348 29.2843 103.695 30.0856C103.239 29.1609 102.489 28.407 101.558 27.9379C100.628 27.4689 99.5671 27.31 98.5365 27.4855C97.5058 27.6609 96.5612 28.1611 95.8454 28.9104C95.1296 29.6597 94.6815 30.6175 94.5687 31.6391C94.0889 35.9328 102.218 42.8053 102.218 42.8053C102.218 42.8053 111.64 39.0499 112.26 33.5599Z" stroke="#263238" stroke-miterlimit="10"/>
<path d="M278.537 276.688C276.502 278.309 274.934 280.424 273.987 282.824C273.04 285.223 272.748 287.824 273.139 290.369C273.531 292.914 274.592 295.314 276.218 297.332C277.844 299.349 279.978 300.915 282.409 301.873C284.841 302.831 287.485 303.148 290.079 302.794C292.674 302.439 295.129 301.425 297.202 299.851C299.275 298.277 300.894 296.199 301.898 293.822C302.901 291.445 303.256 288.851 302.925 286.298" stroke="#263238" stroke-miterlimit="10"/>
<path d="M292.854 274.181C292.108 273.93 291.344 273.737 290.567 273.604" stroke="#263238" stroke-miterlimit="10"/>
<path d="M296.487 292.985C296.487 292.985 286.814 287.575 277.489 286.281C277.489 286.281 274.827 294.937 283.743 298.271C291.464 301.167 296.487 292.985 296.487 292.985Z" stroke="#263238" stroke-miterlimit="10"/>
<path d="M281.149 296.998C281.953 295.037 284.784 294.233 287.549 295.206C288.951 295.668 290.146 296.595 290.929 297.828" stroke="#263238" stroke-miterlimit="10"/>
<path d="M291.705 275.562C292.212 274.731 292.98 274.084 293.893 273.718C294.806 273.353 295.816 273.289 296.77 273.536C297.723 273.783 298.569 274.328 299.18 275.088C299.791 275.849 300.134 276.784 300.157 277.752C301.037 277.307 302.04 277.155 303.016 277.32C303.991 277.485 304.885 277.959 305.562 278.668C306.239 279.378 306.661 280.285 306.766 281.252C306.871 282.218 306.651 283.193 306.142 284.026C304.01 287.529 293.911 288.145 293.911 288.145C293.911 288.145 289 280.035 291.705 275.562Z" stroke="#263238" stroke-miterlimit="10"/>
<path d="M277.151 273.894C277.059 273.116 277.227 272.33 277.63 271.655C278.032 270.979 278.648 270.451 279.384 270.15C280.119 269.849 280.935 269.791 281.707 269.986C282.479 270.18 283.165 270.617 283.662 271.229C284.01 270.526 284.58 269.953 285.287 269.596C285.995 269.239 286.801 269.117 287.585 269.248C288.369 269.38 289.088 269.757 289.635 270.324C290.182 270.891 290.527 271.617 290.618 272.393C290.996 275.666 284.81 280.914 284.81 280.914C284.81 280.914 277.628 278.069 277.151 273.894Z" stroke="#263238" stroke-miterlimit="10"/>
</svg>
