<svg width="61" height="61" viewBox="0 0 61 61" fill="none" xmlns="http://www.w3.org/2000/svg">
<path d="M17.995 41.754L17.9932 44.255H43.0044V41.754H17.995ZM43.005 29.249V31.75H17.9938L17.9957 29.249H43.005ZM43.005 16.744V19.245H17.9938L17.9957 16.744H43.005ZM7.99079 9.2409V51.7574C7.99172 52.7524 8.3873 53.7056 9.09052 54.4093C9.79372 55.1125 10.7473 55.508 11.7423 55.509H49.2574C50.2519 55.508 51.2055 55.1125 51.9092 54.4093C52.6124 53.7056 53.008 52.7525 53.0089 51.7574V9.2409C53.008 8.24635 52.6124 7.29271 51.9092 6.58954C51.2055 5.88587 50.2519 5.49028 49.2574 5.48935H11.7423C10.7473 5.49028 9.7938 5.88586 9.09052 6.58954C8.38731 7.29275 7.99172 8.24631 7.99079 9.2409ZM15.4939 41.7532C15.4944 41.0905 15.7583 40.4548 16.2269 39.9856C16.696 39.517 17.3317 39.2531 17.9949 39.2526H43.0049C43.6681 39.2531 44.3038 39.517 44.773 39.9856C45.2416 40.4547 45.5055 41.0905 45.506 41.7532V44.2542C45.5055 44.9174 45.2416 45.5531 44.773 46.0222C44.3039 46.4909 43.6682 46.7548 43.0049 46.7552H17.9949C17.3318 46.7548 16.6961 46.4909 16.2269 46.0222C15.7582 45.5531 15.4944 44.9174 15.4939 44.2542V41.7532ZM15.4939 29.2482V29.2486C15.4944 28.5855 15.7583 27.9498 16.2269 27.4806C16.696 27.0119 17.3317 26.7481 17.9949 26.7476H43.0049C43.6681 26.7481 44.3038 27.012 44.773 27.4806C45.2416 27.9497 45.5055 28.5854 45.506 29.2486V31.7496C45.5055 32.4124 45.2416 33.048 44.773 33.5172C44.3039 33.9863 43.6682 34.2497 43.0049 34.2507H17.9949C17.3318 34.2497 16.6961 33.9863 16.2269 33.5172C15.7582 33.0481 15.4944 32.4124 15.4939 31.7496V29.2482ZM15.4939 16.7432V16.7436C15.4944 16.0805 15.7583 15.4448 16.2269 14.9756C16.696 14.5069 17.3317 14.2431 17.9949 14.2426H43.0049C43.6681 14.2431 44.3038 14.507 44.773 14.9756C45.2416 15.4447 45.5055 16.0804 45.506 16.7436V19.2446C45.5055 19.9078 45.2416 20.5435 44.773 21.0122C44.3039 21.4813 43.6682 21.7447 43.0049 21.7457H17.9949C17.3318 21.7447 16.6961 21.4813 16.2269 21.0122C15.7582 20.5436 15.4944 19.9078 15.4939 19.2446V16.7432Z" fill="white"/>
</svg>
