<svg width="62" height="49" viewBox="0 0 62 49" fill="none" xmlns="http://www.w3.org/2000/svg">
<path d="M58.1937 21.876C56.6035 23.8858 54.5054 25.4979 52.0983 26.4919C53.026 28.4798 53.5114 30.688 53.5114 32.9626V42.768H59.6292C60.844 42.768 61.8374 41.774 61.8374 40.5598V29.4069C61.8374 26.4255 60.4906 23.6869 58.1935 21.8759L58.1937 21.876Z" fill="white"/>
<path d="M57.1781 12.2252C57.1781 6.12984 52.2312 1.16049 46.1359 1.16049C45.3189 1.16049 44.5238 1.24871 43.7725 1.4257C46.4004 4.42896 48.0126 8.38244 48.0126 12.6668C48.0126 15.2728 47.4164 17.7463 46.3561 19.9551L46.4662 20.0214C47.6591 20.772 48.7189 21.6997 49.6246 22.7156C54.0197 21.2574 57.1781 17.1057 57.1781 12.2252Z" fill="white"/>
<path d="M3.6439 21.876C1.34691 23.6869 0 26.4257 0 29.407V40.5599C0 41.7747 0.993968 42.7681 2.20819 42.7681H8.34799V32.9627C8.34799 30.6882 8.83401 28.5013 9.76111 26.5139C7.35457 25.5199 5.23405 23.9079 3.6439 21.8761V21.876Z" fill="white"/>
<path d="M15.504 19.9557C14.4438 17.7475 13.8475 15.2735 13.8475 12.6674C13.8475 8.38305 15.4596 4.42957 18.0876 1.4263C17.3369 1.24932 16.5193 1.1611 15.7024 1.1611C9.60706 1.1611 4.66016 6.13045 4.66016 12.2258C4.66016 17.1063 7.84045 21.2806 12.2355 22.7162C13.1413 21.7003 14.201 20.7727 15.3939 20.0219L15.504 19.9557Z" fill="white"/>
<path d="M44.0597 23.7094L43.9934 23.665C40.8575 27.3976 36.1533 29.7609 30.9194 29.7609C25.6855 29.7609 21.0033 27.3976 17.8673 23.6875L17.7791 23.7319C14.6207 25.7636 12.744 29.2091 12.744 32.9632V46.1478C12.744 47.3626 13.7379 48.356 14.9521 48.356H46.8869C48.1017 48.356 49.0951 47.362 49.0951 46.1478V32.9632C49.0946 29.2086 47.2179 25.7632 44.0597 23.7094Z" fill="white"/>
<path d="M30.9188 25.3338C37.9035 25.3338 43.5862 19.651 43.5862 12.6663C43.5862 5.68166 37.9029 0 30.9188 0C23.9341 0 18.2513 5.68166 18.2513 12.6663C18.2508 19.651 23.9341 25.3338 30.9188 25.3338Z" fill="white"/>
</svg>
