<svg width="32" height="32" viewBox="0 0 63 70" fill="none" xmlns="http://www.w3.org/2000/svg">
<path d="M30.3508 9.27127C30.3589 5.59677 27.9494 1.73591 24.5357 0.421066C21.2136 -0.858441 17.1546 0.865124 16.2375 4.41094C16.122 4.85666 16.3713 5.32006 16.7968 5.47708L20.3066 6.77226C20.3066 6.77226 8.07209 3.89087 4.91974 16.2009C4.7755 16.7646 5.18337 17.3233 5.75477 17.3364L9.60868 17.422C9.60868 17.422 -2.55129 18.6969 0.48756 35.2744C0.601709 35.8979 1.29707 36.2136 1.82497 35.8779L5.43587 33.5799C5.43587 33.5799 -1.55175 40.3975 1.43902 48.4836C2.67536 51.8264 5.40709 54.3764 8.70825 55.5762C10.9082 56.3756 11.3262 56.3 11.3262 56.3C11.3262 56.3 10.396 56.9831 7.89579 56.548C7.20109 56.427 6.65913 57.1631 6.95905 57.8132C8.15386 60.4058 11.6045 65.0895 20.7276 63.985L16.9639 65.8689C16.6866 66.0076 16.6359 66.3887 16.8678 66.5967C17.2792 66.9661 17.8058 67.4388 17.8238 67.4555C17.8238 67.4555 18.5934 68.2269 19.7189 68.6613C21.8256 69.4744 24.1449 69.1127 26.0635 67.9852C26.523 67.7152 26.9508 67.3955 27.3423 67.0291C28.4845 65.9609 29.2315 64.5454 29.6848 63.0479C30.1751 61.428 30.3534 59.7228 30.4162 58.0345C30.4813 56.2876 30.4149 54.539 30.3462 52.7935C30.2948 51.4933 30.2353 50.1911 30.2589 48.8896C30.4195 39.9787 30.3004 31.0529 30.321 22.1403C30.3308 17.8508 30.3413 13.5608 30.3508 9.27127Z" fill="black"/>
<path d="M32.4852 9.90166C32.496 6.22716 34.9252 2.37931 38.3457 1.0828C41.6744 -0.178706 45.7242 1.5662 46.6233 5.11701C46.7365 5.5634 46.4847 6.02547 46.0585 6.18016L42.5418 7.45666C42.5418 7.45666 54.791 4.64061 57.8803 16.9676C58.0216 17.532 57.6108 18.0888 57.0394 18.0984L53.1851 18.1638C53.1851 18.1638 65.3385 19.5036 62.214 36.0649C62.0966 36.6876 61.3996 36.9997 60.8736 36.6613L57.2748 34.344C57.2748 34.344 64.2275 41.1989 61.1948 49.2687C59.9412 52.6048 57.1967 55.1401 53.8893 56.3223C51.6855 57.1097 51.2678 57.032 51.2678 57.032C51.2678 57.032 52.1944 57.7201 54.6968 57.2984C55.3922 57.181 55.9302 57.9201 55.6274 58.5686C54.4192 61.1549 50.9443 65.8202 41.8271 64.6667L45.5813 66.571C45.8577 66.7113 45.9067 67.0924 45.6735 67.2991C45.2601 67.6665 44.7309 68.1359 44.7132 68.1529C44.7132 68.1529 43.9397 68.9203 42.8119 69.3487C40.701 70.1505 38.3837 69.7764 36.4709 68.6386C36.0127 68.3659 35.5865 68.0442 35.197 67.6758C34.0604 66.6013 33.3209 65.1818 32.8751 63.6823C32.393 62.06 32.2236 60.3535 32.1696 58.6652C32.1137 56.918 32.1889 55.1698 32.2667 53.4245C32.3246 52.1247 32.391 50.8229 32.3743 49.5213C32.2595 40.6095 32.4247 31.6846 32.4496 22.7721C32.461 18.4812 32.4725 14.1916 32.4852 9.90166Z" fill="black"/>
<path d="M59.5826 29.844C59.373 26.2005 55.0961 25.6341 52.2918 25.5078C47.6961 25.3007 42.7572 25.035 38.3329 26.5382C33.9099 28.0411 31.4303 27.4947 31.4303 27.4947C31.4303 27.4947 28.9508 28.0411 24.5277 26.5382C20.1031 25.035 15.1643 25.3007 10.5689 25.5078C7.76452 25.6341 3.48769 26.2005 3.27804 29.844C3.26561 30.0597 3.26986 30.2767 3.2849 30.4921C3.50895 33.7062 4.4156 42.3077 7.774 44.5713C10.0187 46.0842 13.0478 46.3036 15.6604 46.3649C19.6661 46.4586 24.2478 46.2606 26.203 41.9757C27.5434 39.0383 31.4303 38.4238 31.4303 38.4238C31.4303 38.4238 35.3173 39.0386 36.6576 41.9757C38.6129 46.2606 43.1949 46.4586 47.2006 46.3649C49.8132 46.3039 52.8423 46.0845 55.087 44.5713C58.4457 42.3074 59.352 33.7062 59.5761 30.4921C59.5908 30.2767 59.595 30.0597 59.5826 29.844Z" fill="url(#paint0_linear_191_46)"/>
<path d="M6.15756 30.4458C5.56882 33.0834 6.2789 36.3282 7.09397 38.8592C7.83414 41.1572 9.23435 43.3798 11.6606 44.0249C17.8259 45.6641 21.9808 43.2735 21.9808 43.2735C21.9808 43.2735 27.8112 40.4044 27.543 31.1148C27.543 31.1148 26.3367 27.631 16.2844 27.4947C13.4503 27.456 9.91204 27.251 7.37198 28.7845C6.64065 29.2259 6.30212 29.7977 6.15756 30.4458Z" fill="#F2F2F2"/>
<path d="M9.57025 27.8987L16.3185 44.5946C17.9957 44.5553 19.3638 44.2519 20.3346 43.9456L13.9027 27.4653C12.4544 27.4687 10.9531 27.549 9.57025 27.8987Z" fill="#FFFBFB"/>
<path d="M18.1167 27.561C17.541 27.5264 16.9317 27.5034 16.2847 27.4944C16.2285 27.4937 16.1699 27.4924 16.113 27.4917L22.2378 43.1278C22.5358 42.9461 23.066 42.5837 23.6796 42.0017L18.1167 27.561Z" fill="#FFFBFB"/>
<path d="M56.7027 30.4458C57.2915 33.0834 56.5814 36.3282 55.7663 38.8592C55.0261 41.1572 53.6259 43.3798 51.1997 44.0249C45.0343 45.6641 40.8792 43.2735 40.8792 43.2735C40.8792 43.2735 35.0488 40.4044 35.317 31.1148C35.317 31.1148 36.5232 27.631 46.5755 27.4947C49.4096 27.456 52.9482 27.251 55.488 28.7845C56.2196 29.2259 56.5582 29.7977 56.7027 30.4458Z" fill="#F2F2F2"/>
<path d="M45.2816 44.513C46.4905 44.6417 47.9119 44.645 49.5032 44.3873L42.996 27.7147C41.2557 27.9177 39.9025 28.2401 38.853 28.6085L45.2816 44.513Z" fill="#FFFBFB"/>
<path d="M51.5431 43.9169C52.1181 43.7205 52.6319 43.4328 53.0895 43.0754L47.0844 27.4863C46.9127 27.4893 46.7429 27.4923 46.5758 27.4947C46.0695 27.5017 45.5916 27.519 45.1292 27.542L51.5431 43.9169Z" fill="#FFFBFB"/>
<defs>
<linearGradient id="paint0_linear_191_46" x1="3.27042" y1="35.8633" x2="59.5899" y2="35.8633" gradientUnits="userSpaceOnUse">
<stop offset="0.095" stop-color="#396273"/>
<stop offset="0.35" stop-color="#133747"/>
<stop offset="0.655" stop-color="#0D3140"/>
</linearGradient>
</defs>
</svg>
